<svg width="20" height="32" viewBox="0 0 30 32" fill="none" xmlns="http://www.w3.org/2000/svg">
    <path id="Vector"
          d="M14.0125 0.194775L1.82262 5.1554C0.726704 5.60058 0 6.74534 0 8.0173V22.3331C0 23.4906 0.603633 24.5463 1.55304 25.0615L13.7429 31.6757C14.5341 32.1081 15.4659 32.1081 16.2571 31.6757L28.447 25.0615C29.4022 24.5463 30 23.4843 30 22.3331V8.0173C30 6.74534 29.2733 5.60694 28.1774 5.16176L15.9875 0.201135C15.3546 -0.0659754 14.6513 -0.0659754 14.0125 0.194775ZM15.0029 4.14419L26.2551 8.72323V8.79319L15.0029 13.7538L3.75073 8.79319V8.72323L15.0029 4.14419ZM16.8783 26.785V17.3153L26.2551 13.1814V21.6972L16.8783 26.785Z"
          fill="black"/>
</svg>
